<svg width="41" height="41" viewBox="0 0 41 41" fill="none" xmlns="http://www.w3.org/2000/svg">
<g filter="url(#filter0_d_1954_23322)">
<rect x="2" y="1" width="37" height="37" rx="11" fill="white"/>
</g>
<path d="M20.25 19.25L20.2915 19.2293C20.8646 18.9427 21.5099 19.4603 21.3545 20.082L20.6455 22.918C20.4901 23.5397 21.1354 24.0573 21.7085 23.7707L21.75 23.75M30 20C30 24.9706 25.9706 29 21 29C16.0294 29 12 24.9706 12 20C12 15.0294 16.0294 11 21 11C25.9706 11 30 15.0294 30 20ZM21 16.25H21.0075V16.2575H21V16.25Z" stroke="#11074C" stroke-width="1.5" stroke-linecap="round" stroke-linejoin="round"/>
<defs>
<filter id="filter0_d_1954_23322" x="0" y="0" width="41" height="41" filterUnits="userSpaceOnUse" color-interpolation-filters="sRGB">
<feFlood flood-opacity="0" result="BackgroundImageFix"/>
<feColorMatrix in="SourceAlpha" type="matrix" values="0 0 0 0 0 0 0 0 0 0 0 0 0 0 0 0 0 0 127 0" result="hardAlpha"/>
<feOffset dy="1"/>
<feGaussianBlur stdDeviation="1"/>
<feComposite in2="hardAlpha" operator="out"/>
<feColorMatrix type="matrix" values="0 0 0 0 0 0 0 0 0 0 0 0 0 0 0 0 0 0 0.12 0"/>
<feBlend mode="normal" in2="BackgroundImageFix" result="effect1_dropShadow_1954_23322"/>
<feBlend mode="normal" in="SourceGraphic" in2="effect1_dropShadow_1954_23322" result="shape"/>
</filter>
</defs>
</svg>
