<svg width="41" height="41" viewBox="0 0 41 41" fill="none" xmlns="http://www.w3.org/2000/svg">
<g filter="url(#filter0_d_2055_25287)">
<rect x="2" y="1" width="37" height="37" rx="11" fill="white"/>
</g>
<path d="M23.75 13C23.75 15.0711 22.071 16.75 20 16.75C17.9289 16.75 16.25 15.0711 16.25 13C16.25 10.9289 17.9289 9.25 20 9.25C22.071 9.25 23.75 10.9289 23.75 13Z" stroke="#0F172A" stroke-width="1.5" stroke-linecap="round" stroke-linejoin="round"/>
<path d="M12.5011 27.1182C12.5714 23.0369 15.9018 19.75 20 19.75C24.0982 19.75 27.4287 23.0371 27.4988 27.1185C25.216 28.166 22.6764 28.75 20.0003 28.75C17.324 28.75 14.7841 28.1659 12.5011 27.1182Z" stroke="#0F172A" stroke-width="1.5" stroke-linecap="round" stroke-linejoin="round"/>
<defs>
<filter id="filter0_d_2055_25287" x="0" y="0" width="41" height="41" filterUnits="userSpaceOnUse" color-interpolation-filters="sRGB">
<feFlood flood-opacity="0" result="BackgroundImageFix"/>
<feColorMatrix in="SourceAlpha" type="matrix" values="0 0 0 0 0 0 0 0 0 0 0 0 0 0 0 0 0 0 127 0" result="hardAlpha"/>
<feOffset dy="1"/>
<feGaussianBlur stdDeviation="1"/>
<feComposite in2="hardAlpha" operator="out"/>
<feColorMatrix type="matrix" values="0 0 0 0 0 0 0 0 0 0 0 0 0 0 0 0 0 0 0.12 0"/>
<feBlend mode="normal" in2="BackgroundImageFix" result="effect1_dropShadow_2055_25287"/>
<feBlend mode="normal" in="SourceGraphic" in2="effect1_dropShadow_2055_25287" result="shape"/>
</filter>
</defs>
</svg>
