<svg width="41" height="41" viewBox="0 0 41 41" fill="none" xmlns="http://www.w3.org/2000/svg">
<g filter="url(#filter0_d_5414_1966)">
<rect x="2" y="1" width="37" height="37" rx="11" fill="white"/>
</g>
<path d="M27.0001 27.9998H16.5001L12.2901 23.6998C12.1038 23.5125 11.9993 23.259 11.9993 22.9948C11.9993 22.7306 12.1038 22.4772 12.2901 22.2898L22.2901 12.2898C22.4774 12.1036 22.7309 11.999 22.9951 11.999C23.2592 11.999 23.5127 12.1036 23.7001 12.2898L28.7001 17.2898C28.8863 17.4772 28.9909 17.7306 28.9909 17.9948C28.9909 18.259 28.8863 18.5125 28.7001 18.6998L19.5001 27.9998" stroke="black" stroke-width="2" stroke-linecap="round" stroke-linejoin="round"/>
<path d="M26 21.3L19.7 15" stroke="black" stroke-width="2" stroke-linecap="round" stroke-linejoin="round"/>
<defs>
<filter id="filter0_d_5414_1966" x="0" y="0" width="41" height="41" filterUnits="userSpaceOnUse" color-interpolation-filters="sRGB">
<feFlood flood-opacity="0" result="BackgroundImageFix"/>
<feColorMatrix in="SourceAlpha" type="matrix" values="0 0 0 0 0 0 0 0 0 0 0 0 0 0 0 0 0 0 127 0" result="hardAlpha"/>
<feOffset dy="1"/>
<feGaussianBlur stdDeviation="1"/>
<feComposite in2="hardAlpha" operator="out"/>
<feColorMatrix type="matrix" values="0 0 0 0 0 0 0 0 0 0 0 0 0 0 0 0 0 0 0.12 0"/>
<feBlend mode="normal" in2="BackgroundImageFix" result="effect1_dropShadow_5414_1966"/>
<feBlend mode="normal" in="SourceGraphic" in2="effect1_dropShadow_5414_1966" result="shape"/>
</filter>
</defs>
</svg>
