<svg width="41" height="41" viewBox="0 0 41 41" fill="none" xmlns="http://www.w3.org/2000/svg">
<g filter="url(#filter0_d_1954_23316)">
<rect x="2" y="1" width="37" height="37" rx="11" fill="white"/>
</g>
<path d="M23.1684 25.0817C25.0629 24.857 26.8898 24.4116 28.6227 23.7719C27.1859 22.177 26.3113 20.0656 26.3113 17.75V17.0492C26.3115 17.0328 26.3115 17.0164 26.3115 17C26.3115 13.6863 23.6252 11 20.3115 11C16.9978 11 14.3115 13.6863 14.3115 17L14.3113 17.75C14.3113 20.0656 13.4368 22.177 12 23.7719C13.7329 24.4116 15.56 24.857 17.4547 25.0818M23.1684 25.0817C22.2315 25.1928 21.2781 25.25 20.3113 25.25C19.3447 25.25 18.3914 25.1929 17.4547 25.0818M23.1684 25.0817C23.2613 25.3711 23.3115 25.6797 23.3115 26C23.3115 27.6569 21.9684 29 20.3115 29C18.6547 29 17.3115 27.6569 17.3115 26C17.3115 25.6797 17.3617 25.3712 17.4547 25.0818" stroke="#11074C" stroke-width="1.5" stroke-linecap="round" stroke-linejoin="round"/>
<defs>
<filter id="filter0_d_1954_23316" x="0" y="0" width="41" height="41" filterUnits="userSpaceOnUse" color-interpolation-filters="sRGB">
<feFlood flood-opacity="0" result="BackgroundImageFix"/>
<feColorMatrix in="SourceAlpha" type="matrix" values="0 0 0 0 0 0 0 0 0 0 0 0 0 0 0 0 0 0 127 0" result="hardAlpha"/>
<feOffset dy="1"/>
<feGaussianBlur stdDeviation="1"/>
<feComposite in2="hardAlpha" operator="out"/>
<feColorMatrix type="matrix" values="0 0 0 0 0 0 0 0 0 0 0 0 0 0 0 0 0 0 0.12 0"/>
<feBlend mode="normal" in2="BackgroundImageFix" result="effect1_dropShadow_1954_23316"/>
<feBlend mode="normal" in="SourceGraphic" in2="effect1_dropShadow_1954_23316" result="shape"/>
</filter>
</defs>
</svg>
