<svg width="41" height="41" viewBox="0 0 41 41" fill="none" xmlns="http://www.w3.org/2000/svg">
<g filter="url(#filter0_d_5414_2003)">
<rect x="2" y="1" width="37" height="37" rx="11" fill="white"/>
</g>
<path d="M18 13C18 13.5304 18.2107 14.0391 18.5858 14.4142C18.9609 14.7893 19.4696 15 20 15C20.5304 15 21.0391 14.7893 21.4142 14.4142C21.7893 14.0391 22 13.5304 22 13C22 12.4696 21.7893 11.9609 21.4142 11.5858C21.0391 11.2107 20.5304 11 20 11C19.4696 11 18.9609 11.2107 18.5858 11.5858C18.2107 11.9609 18 12.4696 18 13Z" stroke="black" stroke-width="2" stroke-linecap="round" stroke-linejoin="round"/>
<path d="M25 16C25 16.5304 25.2107 17.0391 25.5858 17.4142C25.9609 17.7893 26.4696 18 27 18C27.5304 18 28.0391 17.7893 28.4142 17.4142C28.7893 17.0391 29 16.5304 29 16C29 15.4696 28.7893 14.9609 28.4142 14.5858C28.0391 14.2107 27.5304 14 27 14C26.4696 14 25.9609 14.2107 25.5858 14.5858C25.2107 14.9609 25 15.4696 25 16Z" stroke="black" stroke-width="2" stroke-linecap="round" stroke-linejoin="round"/>
<path d="M11 19C11 19.5304 11.2107 20.0391 11.5858 20.4142C11.9609 20.7893 12.4696 21 13 21C13.5304 21 14.0391 20.7893 14.4142 20.4142C14.7893 20.0391 15 19.5304 15 19C15 18.4696 14.7893 17.9609 14.4142 17.5858C14.0391 17.2107 13.5304 17 13 17C12.4696 17 11.9609 17.2107 11.5858 17.5858C11.2107 17.9609 11 18.4696 11 19Z" stroke="black" stroke-width="2" stroke-linecap="round" stroke-linejoin="round"/>
<path d="M21 27C21 27.5304 21.2107 28.0391 21.5858 28.4142C21.9609 28.7893 22.4696 29 23 29C23.5304 29 24.0391 28.7893 24.4142 28.4142C24.7893 28.0391 25 27.5304 25 27C25 26.4696 24.7893 25.9609 24.4142 25.5858C24.0391 25.2107 23.5304 25 23 25C22.4696 25 21.9609 25.2107 21.5858 25.5858C21.2107 25.9609 21 26.4696 21 27Z" stroke="black" stroke-width="2" stroke-linecap="round" stroke-linejoin="round"/>
<path d="M14.5 17.5L18 14.5" stroke="black" stroke-width="2" stroke-linecap="round" stroke-linejoin="round"/>
<path d="M22 13.5L25 15" stroke="black" stroke-width="2" stroke-linecap="round" stroke-linejoin="round"/>
<path d="M26.5 18L24 25" stroke="black" stroke-width="2" stroke-linecap="round" stroke-linejoin="round"/>
<path d="M21.5 25.5L14.5 20.5" stroke="black" stroke-width="2" stroke-linecap="round" stroke-linejoin="round"/>
<defs>
<filter id="filter0_d_5414_2003" x="0" y="0" width="41" height="41" filterUnits="userSpaceOnUse" color-interpolation-filters="sRGB">
<feFlood flood-opacity="0" result="BackgroundImageFix"/>
<feColorMatrix in="SourceAlpha" type="matrix" values="0 0 0 0 0 0 0 0 0 0 0 0 0 0 0 0 0 0 127 0" result="hardAlpha"/>
<feOffset dy="1"/>
<feGaussianBlur stdDeviation="1"/>
<feComposite in2="hardAlpha" operator="out"/>
<feColorMatrix type="matrix" values="0 0 0 0 0 0 0 0 0 0 0 0 0 0 0 0 0 0 0.12 0"/>
<feBlend mode="normal" in2="BackgroundImageFix" result="effect1_dropShadow_5414_2003"/>
<feBlend mode="normal" in="SourceGraphic" in2="effect1_dropShadow_5414_2003" result="shape"/>
</filter>
</defs>
</svg>
