<svg width="41" height="41" viewBox="0 0 41 41" fill="none" xmlns="http://www.w3.org/2000/svg">
<g filter="url(#filter0_d_1954_23323)">
<rect x="2" y="1" width="37" height="37" rx="11" fill="white"/>
</g>
<path d="M11 19.8137L19.6214 24.2158C20.8279 24.8319 22.2691 24.7984 23.4449 24.1271L31 19.8137M11 23.1584L19.6214 27.5605C20.8279 28.1766 22.2691 28.1431 23.4449 27.4718L31 23.1584M12.5116 16.6899L20.0087 20.518C20.9739 21.0108 22.1268 20.9841 23.0675 20.447L29.6825 16.6703C30.2673 16.3364 30.266 15.5021 29.6801 15.17L23.0592 11.4176C22.1229 10.8869 20.9781 10.8604 20.0176 11.3473L12.5139 15.1508C11.8799 15.4721 11.8785 16.3667 12.5116 16.6899Z" stroke="#11074C" stroke-width="1.5"/>
<defs>
<filter id="filter0_d_1954_23323" x="0" y="0" width="41" height="41" filterUnits="userSpaceOnUse" color-interpolation-filters="sRGB">
<feFlood flood-opacity="0" result="BackgroundImageFix"/>
<feColorMatrix in="SourceAlpha" type="matrix" values="0 0 0 0 0 0 0 0 0 0 0 0 0 0 0 0 0 0 127 0" result="hardAlpha"/>
<feOffset dy="1"/>
<feGaussianBlur stdDeviation="1"/>
<feComposite in2="hardAlpha" operator="out"/>
<feColorMatrix type="matrix" values="0 0 0 0 0 0 0 0 0 0 0 0 0 0 0 0 0 0 0.12 0"/>
<feBlend mode="normal" in2="BackgroundImageFix" result="effect1_dropShadow_1954_23323"/>
<feBlend mode="normal" in="SourceGraphic" in2="effect1_dropShadow_1954_23323" result="shape"/>
</filter>
</defs>
</svg>
