<svg width="41" height="41" viewBox="0 0 41 41" fill="none" xmlns="http://www.w3.org/2000/svg">
<g filter="url(#filter0_d_1954_23330)">
<rect x="2" y="1" width="37" height="37" rx="11" fill="white"/>
</g>
<path d="M20.9999 23.1551C22.7425 23.1551 24.1551 21.7425 24.1551 19.9999C24.1551 18.2574 22.7425 16.8447 20.9999 16.8447C19.2574 16.8447 17.8447 18.2574 17.8447 19.9999C17.8447 21.7425 19.2574 23.1551 20.9999 23.1551Z" stroke="#0F172A" stroke-width="1.5" stroke-miterlimit="10" stroke-linecap="round"/>
<path d="M21 26.9809C24.8555 26.9809 27.9809 23.8555 27.9809 20C27.9809 16.1445 24.8555 13.019 21 13.019C17.1445 13.019 14.019 16.1445 14.019 20C14.019 23.8555 17.1445 26.9809 21 26.9809Z" stroke="#0F172A" stroke-width="1.5" stroke-miterlimit="10" stroke-linecap="round"/>
<path d="M21 10V13.019" stroke="#0F172A" stroke-width="1.5" stroke-miterlimit="10" stroke-linecap="round"/>
<path d="M31 20H27.981" stroke="#0F172A" stroke-width="1.5" stroke-miterlimit="10" stroke-linecap="round"/>
<path d="M14.019 20H11" stroke="#0F172A" stroke-width="1.5" stroke-miterlimit="10" stroke-linecap="round"/>
<path d="M21 26.981V30" stroke="#0F172A" stroke-width="1.5" stroke-miterlimit="10" stroke-linecap="round"/>
<defs>
<filter id="filter0_d_1954_23330" x="0" y="0" width="41" height="41" filterUnits="userSpaceOnUse" color-interpolation-filters="sRGB">
<feFlood flood-opacity="0" result="BackgroundImageFix"/>
<feColorMatrix in="SourceAlpha" type="matrix" values="0 0 0 0 0 0 0 0 0 0 0 0 0 0 0 0 0 0 127 0" result="hardAlpha"/>
<feOffset dy="1"/>
<feGaussianBlur stdDeviation="1"/>
<feComposite in2="hardAlpha" operator="out"/>
<feColorMatrix type="matrix" values="0 0 0 0 0 0 0 0 0 0 0 0 0 0 0 0 0 0 0.12 0"/>
<feBlend mode="normal" in2="BackgroundImageFix" result="effect1_dropShadow_1954_23330"/>
<feBlend mode="normal" in="SourceGraphic" in2="effect1_dropShadow_1954_23330" result="shape"/>
</filter>
</defs>
</svg>
