<svg width="41" height="41" viewBox="0 0 41 41" fill="none" xmlns="http://www.w3.org/2000/svg">
<g filter="url(#filter0_d_1954_23331)">
<rect x="2" y="1" width="37" height="37" rx="11" fill="white"/>
</g>
<path d="M21.5848 10.7883C21.5848 10.4044 21.5873 10.0204 21.5844 9.63642C21.5814 9.2593 21.3334 8.99614 20.9919 9.00054C20.6578 9.00494 20.4156 9.26419 20.4141 9.63153C20.4112 10.3931 20.4112 11.1547 20.4141 11.9163C20.4156 12.2934 20.6651 12.5566 21.0066 12.5522C21.3407 12.5478 21.5809 12.2885 21.5844 11.9212C21.5878 11.5436 21.5853 11.166 21.5853 10.7888L21.5848 10.7883ZM12.7764 18.4131C12.3987 18.4131 12.0215 18.4111 11.6438 18.4135C11.2632 18.4165 11 18.6576 11 18.9991C11 19.3405 11.2627 19.5831 11.6433 19.5845C12.3982 19.587 13.1536 19.587 13.9084 19.5845C14.289 19.5836 14.5518 19.341 14.5518 18.9995C14.5518 18.6581 14.289 18.4165 13.9084 18.414C13.5308 18.4116 13.1536 18.4135 12.7759 18.4135L12.7764 18.4131ZM16.6187 13.9575C16.5811 13.8836 16.5414 13.7281 16.4446 13.6278C15.8971 13.0619 15.3438 12.5003 14.7719 11.9593C14.6599 11.8537 14.4569 11.8014 14.2959 11.8009C14.0655 11.7994 13.8991 11.954 13.8204 12.1751C13.7382 12.405 13.7925 12.6148 13.9608 12.787C14.3116 13.145 14.6677 13.4977 15.0229 13.8513C15.2303 14.0582 15.4333 14.27 15.6496 14.4667C15.8296 14.6301 16.0459 14.6565 16.268 14.5562C16.4906 14.4554 16.5962 14.2705 16.6192 13.9575H16.6187ZM26.0324 14.6178C26.1023 14.586 26.2442 14.5606 26.3303 14.477C26.9188 13.9061 27.503 13.3304 28.068 12.7366C28.1644 12.6353 28.2006 12.4397 28.1967 12.289C28.1908 12.0562 28.0367 11.8953 27.8156 11.8185C27.5754 11.7348 27.366 11.8058 27.1904 11.9789C26.7882 12.3776 26.3885 12.7791 25.9888 13.1802C25.8328 13.3368 25.6708 13.4894 25.5255 13.6557C25.3656 13.8391 25.3411 14.0543 25.4443 14.2749C25.548 14.4965 25.7349 14.5992 26.0319 14.6178H26.0324Z" fill="white"/>
<path d="M20.2178 28.9997C19.9385 28.8852 19.6322 28.8118 19.3857 28.648C18.892 28.3203 18.6758 27.8189 18.6562 27.2319C18.6528 27.1277 18.6553 27.0235 18.6553 26.9194C18.6543 26.5369 18.6954 26.1661 18.371 25.8413C18.1093 25.5796 18.0677 25.1922 18.0677 24.818C18.0677 23.9752 17.7859 23.2567 17.1925 22.6365C14.5047 19.8268 15.6446 15.2113 19.3377 13.9924C21.5192 13.2724 23.8767 14.0193 25.2329 15.8692C26.5592 17.6785 26.6223 20.0029 25.4051 21.889C25.2157 22.182 24.9799 22.4486 24.7427 22.7059C24.1898 23.3051 23.9301 24.0114 23.9301 24.8185C23.9301 25.2 23.8435 25.5517 23.6268 25.8687C23.616 25.8848 23.6111 25.9078 23.5964 25.9181C23.3078 26.123 23.3454 26.4258 23.3386 26.7247C23.3308 27.0607 23.3415 27.41 23.2545 27.7289C23.0627 28.4318 22.5695 28.8397 21.8509 28.9718C21.8264 28.9762 21.8034 28.9904 21.7799 29.0002H20.2174L20.2178 28.9997ZM20.9903 25.4837C21.3548 25.4837 21.7193 25.4847 22.0837 25.4837C22.5275 25.4818 22.7256 25.2548 22.7638 24.8097C22.8029 24.3528 22.8636 23.8916 22.978 23.4484C23.1586 22.7504 23.6194 22.2168 24.0856 21.6821C25.0152 20.6173 25.3258 19.3622 24.9662 18.0048C24.5211 16.3256 23.4037 15.294 21.686 14.9697C19.5202 14.5608 17.4131 15.9925 16.9919 18.1408C16.7644 19.3005 16.9655 20.381 17.6528 21.3505C17.8774 21.6675 18.1651 21.9389 18.4048 22.2461C18.9972 23.0038 19.2369 23.8803 19.2414 24.8312C19.2433 25.2514 19.4762 25.4813 19.8964 25.4837C20.2609 25.4857 20.6254 25.4837 20.9898 25.4837H20.9903ZM19.8323 26.6645C19.8323 26.8895 19.8172 27.1038 19.8362 27.3146C19.8617 27.5988 20.0975 27.8155 20.3876 27.8228C20.7966 27.8331 21.2061 27.8336 21.6151 27.8228C21.9047 27.815 22.1385 27.5944 22.1625 27.3102C22.1801 27.0994 22.1659 26.8856 22.1659 26.665H19.8323V26.6645Z" fill="black"/>
<path d="M30.9994 19.1554C30.8438 19.4929 30.5762 19.5996 30.2132 19.5903C29.4921 19.5722 28.7705 19.5898 28.0489 19.5824C27.6145 19.578 27.3337 19.1765 27.4873 18.79C27.5797 18.5572 27.7603 18.4198 28.0098 18.4173C28.8155 18.4095 29.6217 18.4119 30.4275 18.4154C30.7181 18.4168 30.8756 18.61 30.9989 18.8424V19.1549L30.9994 19.1554Z" fill="black"/>
<path d="M21.5848 10.7883C21.5848 11.166 21.5872 11.5436 21.5838 11.9207C21.5804 12.2881 21.3402 12.5473 21.006 12.5517C20.6646 12.5561 20.415 12.2929 20.4136 11.9158C20.4106 11.1542 20.4106 10.3926 20.4136 9.63104C20.415 9.2637 20.6572 9.00446 20.9914 9.00005C21.3328 8.99565 21.5809 9.25881 21.5838 9.63594C21.5867 10.0199 21.5843 10.4039 21.5843 10.7879L21.5848 10.7883Z" fill="black"/>
<path d="M12.7764 18.4129C13.1541 18.4129 13.5312 18.4109 13.9089 18.4133C14.289 18.4158 14.5523 18.6574 14.5523 18.9988C14.5523 19.3403 14.289 19.5829 13.9089 19.5839C13.1541 19.5863 12.3987 19.5863 11.6438 19.5839C11.2627 19.5829 11 19.3398 11 18.9988C11 18.6574 11.2632 18.4163 11.6433 18.4138C12.021 18.4114 12.3982 18.4133 12.7759 18.4133L12.7764 18.4129Z" fill="black"/>
<path d="M16.6188 13.9574C16.5958 14.2705 16.4902 14.4554 16.2676 14.5561C16.0455 14.6569 15.8292 14.63 15.6492 14.4666C15.4325 14.27 15.2299 14.0582 15.0225 13.8513C14.6678 13.4971 14.3112 13.1449 13.9604 12.7869C13.7921 12.6152 13.7378 12.4049 13.82 12.175C13.8987 11.9539 14.0651 11.7993 14.2955 11.8008C14.457 11.8018 14.66 11.8536 14.7715 11.9593C15.3434 12.5003 15.8962 13.0618 16.4442 13.6277C16.541 13.728 16.5807 13.8831 16.6183 13.9574H16.6188Z" fill="black"/>
<path d="M26.0329 14.6179C25.736 14.5988 25.5491 14.4966 25.4454 14.275C25.3422 14.0544 25.3666 13.8392 25.5266 13.6558C25.6719 13.4895 25.8333 13.3373 25.9899 13.1803C26.3896 12.7792 26.7893 12.3777 27.1914 11.979C27.3666 11.8054 27.576 11.7344 27.8166 11.8186C28.0378 11.8958 28.1919 12.0568 28.1978 12.2891C28.2017 12.4393 28.1655 12.6354 28.0691 12.7367C27.504 13.3305 26.9194 13.9062 26.3314 14.477C26.2453 14.5607 26.1034 14.5861 26.0334 14.6179H26.0329Z" fill="black"/>
<path d="M18.1509 18.3112C18.2302 17.9038 18.4185 17.5134 18.6969 17.1706C19.2669 16.4677 20.011 16.1072 20.9136 16.0724C21.2922 16.0578 21.5672 16.2882 21.5833 16.6281C21.5995 16.9671 21.3426 17.2229 20.9674 17.242C20.1372 17.2836 19.5829 17.7008 19.3114 18.4873C19.1954 18.8229 18.9308 18.9995 18.6338 18.9393C18.3388 18.8796 18.1363 18.6297 18.1514 18.3112H18.1509Z" fill="black"/>
<defs>
<filter id="filter0_d_1954_23331" x="0" y="0" width="41" height="41" filterUnits="userSpaceOnUse" color-interpolation-filters="sRGB">
<feFlood flood-opacity="0" result="BackgroundImageFix"/>
<feColorMatrix in="SourceAlpha" type="matrix" values="0 0 0 0 0 0 0 0 0 0 0 0 0 0 0 0 0 0 127 0" result="hardAlpha"/>
<feOffset dy="1"/>
<feGaussianBlur stdDeviation="1"/>
<feComposite in2="hardAlpha" operator="out"/>
<feColorMatrix type="matrix" values="0 0 0 0 0 0 0 0 0 0 0 0 0 0 0 0 0 0 0.12 0"/>
<feBlend mode="normal" in2="BackgroundImageFix" result="effect1_dropShadow_1954_23331"/>
<feBlend mode="normal" in="SourceGraphic" in2="effect1_dropShadow_1954_23331" result="shape"/>
</filter>
</defs>
</svg>
